<svg viewBox="0 0 480 480" xmlns="http://www.w3.org/2000/svg" role="img" aria-label="joint_hinge">
  <style>
    .guide{fill:none;stroke:#c7ccd4;stroke-width:2.5}
    .gthin{fill:none;stroke:#c7ccd4;stroke-width:1.4}
    .gfill{fill:#c7ccd4;opacity:.18;stroke:none}
    .cons{fill:none;stroke:#e0533d;stroke-width:2.5;stroke-linecap:round;stroke-linejoin:round}
    .consf{fill:#e0533d;opacity:.14;stroke:none}
    .consd{fill:none;stroke:#e0533d;stroke-width:2;stroke-dasharray:6 5}
    .acc{fill:none;stroke:#2f6df0;stroke-width:2.5;stroke-linecap:round;stroke-linejoin:round}
    .accf{fill:#2f6df0;opacity:.14;stroke:none}
    .accd{fill:none;stroke:#2f6df0;stroke-width:2;stroke-dasharray:6 5}
    .ink{fill:none;stroke:#3a3f47;stroke-width:1.5;stroke-linejoin:round}
    .dot{fill:#e0533d;stroke:none}
    .adot{fill:#2f6df0;stroke:none}
    .lbl{fill:#3a3f47;font-family:'Pretendard','Apple SD Gothic Neo',sans-serif;font-size:14px}
    .cap{fill:#3a3f47;font-family:'Pretendard','Apple SD Gothic Neo',sans-serif;font-size:13px;opacity:.85}
    .tag{fill:#e0533d;font-family:sans-serif;font-size:12px;font-weight:600}
    .atag{fill:#2f6df0;font-family:sans-serif;font-size:12px;font-weight:600}
  </style><defs>
    <marker id="ar" markerWidth="10" markerHeight="10" refX="7.5" refY="4" orient="auto"><path d="M0 0 L8 4 L0 8 z" fill="#e0533d"/></marker>
    <marker id="ab" markerWidth="10" markerHeight="10" refX="7.5" refY="4" orient="auto"><path d="M0 0 L8 4 L0 8 z" fill="#2f6df0"/></marker>
    <marker id="ag" markerWidth="10" markerHeight="10" refX="7.5" refY="4" orient="auto"><path d="M0 0 L8 4 L0 8 z" fill="#9aa1ab"/></marker>
  </defs><line class="ink" x1="110" y1="90" x2="170" y2="180"/><circle class="guide" cx="170" cy="180" r="9"/><circle class="dot" cx="170" cy="180" r="5"/><line class="consd" x1="170" y1="180" x2="300" y2="190"/><line class="cons" x1="170" y1="180" x2="265" y2="275"/><line class="consd" x1="170" y1="180" x2="205" y2="310"/><path class="acc" d="M240 180 A 72 72 0 0 1 195 248"/><line class="acc" x1="230" y1="170" x2="200" y2="235" marker-end="url(#ab)"/><text class="lbl" x="260" y="186">폄(0°)</text><text class="lbl" x="270" y="280">굽힘</text><text class="lbl" x="192" y="332">최대굽힘</text><text class="tag" x="110" y="184">경첩축</text><rect x="300" y="300" width="96" height="90" fill="none" stroke="#c7ccd4" stroke-width="2"/><line class="guide" x1="300" y1="300" x2="348" y2="285"/><line class="guide" x1="300" y1="390" x2="348" y2="405"/><line class="guide" x1="348" y1="285" x2="348" y2="405"/><line class="acc" x1="300" y1="300" x2="300" y2="390"/><text class="atag" x="250" y="350">1축</text><text class="cap" x="20" y="446">무릎·팔꿈치는 경첩 관절: 한 축으로만 굽힌다.</text><text class="cap" x="20" y="465">굽힐수록 두 원통이 겹치며 안쪽에 주름이 진다.</text>
</svg>
