<svg viewBox="0 0 480 480" xmlns="http://www.w3.org/2000/svg" role="img" aria-label="joint_cylinder_sphere">
  <style>
    .guide{fill:none;stroke:#c7ccd4;stroke-width:2.5}
    .gthin{fill:none;stroke:#c7ccd4;stroke-width:1.4}
    .gfill{fill:#c7ccd4;opacity:.18;stroke:none}
    .cons{fill:none;stroke:#e0533d;stroke-width:2.5;stroke-linecap:round;stroke-linejoin:round}
    .consf{fill:#e0533d;opacity:.14;stroke:none}
    .consd{fill:none;stroke:#e0533d;stroke-width:2;stroke-dasharray:6 5}
    .acc{fill:none;stroke:#2f6df0;stroke-width:2.5;stroke-linecap:round;stroke-linejoin:round}
    .accf{fill:#2f6df0;opacity:.14;stroke:none}
    .accd{fill:none;stroke:#2f6df0;stroke-width:2;stroke-dasharray:6 5}
    .ink{fill:none;stroke:#3a3f47;stroke-width:1.5;stroke-linejoin:round}
    .dot{fill:#e0533d;stroke:none}
    .adot{fill:#2f6df0;stroke:none}
    .lbl{fill:#3a3f47;font-family:'Pretendard','Apple SD Gothic Neo',sans-serif;font-size:14px}
    .cap{fill:#3a3f47;font-family:'Pretendard','Apple SD Gothic Neo',sans-serif;font-size:13px;opacity:.85}
    .tag{fill:#e0533d;font-family:sans-serif;font-size:12px;font-weight:600}
    .atag{fill:#2f6df0;font-family:sans-serif;font-size:12px;font-weight:600}
  </style><defs>
    <marker id="ar" markerWidth="10" markerHeight="10" refX="7.5" refY="4" orient="auto"><path d="M0 0 L8 4 L0 8 z" fill="#e0533d"/></marker>
    <marker id="ab" markerWidth="10" markerHeight="10" refX="7.5" refY="4" orient="auto"><path d="M0 0 L8 4 L0 8 z" fill="#2f6df0"/></marker>
    <marker id="ag" markerWidth="10" markerHeight="10" refX="7.5" refY="4" orient="auto"><path d="M0 0 L8 4 L0 8 z" fill="#9aa1ab"/></marker>
  </defs><circle class="consf" cx="120" cy="90" r="13"/><circle class="cons" cx="120" cy="90" r="13"/><circle class="consf" cx="175" cy="175" r="13"/><circle class="cons" cx="175" cy="175" r="13"/><circle class="consf" cx="250" cy="230" r="13"/><circle class="cons" cx="250" cy="230" r="13"/><circle class="consf" cx="320" cy="300" r="13"/><circle class="cons" cx="320" cy="300" r="13"/><line class="ink" x1="120" y1="90" x2="175" y2="175"/><line class="ink" x1="175" y1="175" x2="250" y2="230"/><line class="ink" x1="250" y1="230" x2="320" y2="300"/><ellipse class="gthin" cx="212" cy="202" rx="30" ry="11"/><ellipse class="gthin" cx="212" cy="202" rx="30" ry="11"/><text class="tag" x="95" y="80">구=관절</text><text class="atag" x="265" y="215">원통=뼈마디</text><text class="lbl" x="60" y="380">사지 = 원통(뼈)들이 구(관절)로 이어진 사슬.</text><text class="lbl" x="60" y="408">관절 구가 회전 중심 — 거기서 방향이 꺾인다.</text><text class="cap" x="20" y="462">사지는 원통(뼈마디) + 구(관절)의 사슬. 구가 꺾이는 중심이다.</text>
</svg>
