<svg viewBox="0 0 480 480" xmlns="http://www.w3.org/2000/svg" role="img" aria-label="mannequin_blocking">
  <style>
    .guide { fill:none; stroke:#c7ccd4; stroke-width:2.5; }
    .gfill { fill:#c7ccd4; opacity:.18; stroke:none; }
    .cons  { fill:none; stroke:#e0533d; stroke-width:2.5; stroke-linecap:round; stroke-linejoin:round; }
    .consd { fill:none; stroke:#e0533d; stroke-width:2; stroke-dasharray:6 5; }
    .acc   { fill:none; stroke:#2f6df0;  stroke-width:2.5; stroke-linecap:round; }
    .accd  { fill:none; stroke:#2f6df0;  stroke-width:2; stroke-dasharray:6 5; }
    .dot   { fill:#e0533d; stroke:none; }
    .adot  { fill:#2f6df0; stroke:none; }
    .lbl   { fill:#3a3f47; font-family:'Pretendard','Apple SD Gothic Neo',sans-serif; font-size:14px; }
    .cap   { fill:#3a3f47; font-family:'Pretendard','Apple SD Gothic Neo',sans-serif; font-size:13px; opacity:.8; }
    .tag   { fill:#e0533d; font-family:sans-serif; font-size:12px; font-weight:600; }
  </style>
  <g id="guide"></g>
  <g id="construction"><ellipse class="cons" cx="240" cy="80" rx="26" ry="32"/><line class="cons" x1="240" y1="112" x2="240" y2="138"/><path class="cons" d="M204 138 L276 138 L286 222 L194 222 Z"/><path class="cons" d="M206 250 L274 250 L282 312 L198 312 Z"/><line class="consd" x1="240" y1="222" x2="240" y2="250"/><path class="cons" d="M204 150 q-44 30 -54 86"/><path class="cons" d="M276 150 q44 30 54 86"/><ellipse class="cons" cx="150" cy="248" rx="12" ry="18"/><ellipse class="cons" cx="330" cy="248" rx="12" ry="18"/><path class="cons" d="M214 312 L206 410"/><path class="cons" d="M266 312 L274 410"/><circle class="dot" cx="240" cy="138" r="4"/><circle class="dot" cx="208" cy="236" r="4"/><circle class="dot" cx="272" cy="236" r="4"/><circle class="dot" cx="214" cy="312" r="4"/><circle class="dot" cx="266" cy="312" r="4"/></g>
  <g id="label"><text class="lbl" x="272" y="80">달걀</text><text class="lbl" x="120" y="138">흉곽 상자</text><text class="lbl" x="120" y="288">골반 상자</text><text class="lbl" x="120" y="200">원통 팔</text><text class="lbl" x="296" y="380">원통 다리</text>
    <text class="cap" x="20" y="462">디테일 전에 머리·흉곽·골반·팔다리를 상자와 원통으로 먼저 쌓기.</text>
  </g>
</svg>
