<svg viewBox="0 0 480 480" xmlns="http://www.w3.org/2000/svg" role="img" aria-label="spine_flexion">
  <style>
    .guide{fill:none;stroke:#c7ccd4;stroke-width:2.5}
    .gthin{fill:none;stroke:#c7ccd4;stroke-width:1.4}
    .gfill{fill:#c7ccd4;opacity:.18;stroke:none}
    .cons{fill:none;stroke:#e0533d;stroke-width:2.5;stroke-linecap:round;stroke-linejoin:round}
    .consf{fill:#e0533d;opacity:.14;stroke:none}
    .consd{fill:none;stroke:#e0533d;stroke-width:2;stroke-dasharray:6 5}
    .acc{fill:none;stroke:#2f6df0;stroke-width:2.5;stroke-linecap:round;stroke-linejoin:round}
    .accf{fill:#2f6df0;opacity:.14;stroke:none}
    .accd{fill:none;stroke:#2f6df0;stroke-width:2;stroke-dasharray:6 5}
    .ink{fill:none;stroke:#3a3f47;stroke-width:1.5;stroke-linejoin:round}
    .dot{fill:#e0533d;stroke:none}
    .adot{fill:#2f6df0;stroke:none}
    .lbl{fill:#3a3f47;font-family:'Pretendard','Apple SD Gothic Neo',sans-serif;font-size:14px}
    .cap{fill:#3a3f47;font-family:'Pretendard','Apple SD Gothic Neo',sans-serif;font-size:13px;opacity:.85}
    .tag{fill:#e0533d;font-family:sans-serif;font-size:12px;font-weight:600}
    .atag{fill:#2f6df0;font-family:sans-serif;font-size:12px;font-weight:600}
  </style><defs>
    <marker id="ar" markerWidth="10" markerHeight="10" refX="7.5" refY="4" orient="auto"><path d="M0 0 L8 4 L0 8 z" fill="#e0533d"/></marker>
    <marker id="ab" markerWidth="10" markerHeight="10" refX="7.5" refY="4" orient="auto"><path d="M0 0 L8 4 L0 8 z" fill="#2f6df0"/></marker>
    <marker id="ag" markerWidth="10" markerHeight="10" refX="7.5" refY="4" orient="auto"><path d="M0 0 L8 4 L0 8 z" fill="#9aa1ab"/></marker>
  </defs><path class="ink" d="M150 90 C175 150 130 220 160 300 C175 350 165 390 160 410"/><text class="lbl" x="120" y="70">중립 S</text><path class="cons" d="M250 90 C300 160 300 250 250 330 C235 360 240 390 245 410"/><text class="tag" x="225" y="70">굴곡(앞)</text><path class="acc" d="M370 90 C340 160 350 250 380 330 C390 360 385 390 380 410"/><text class="atag" x="345" y="70">신전(뒤)</text><circle class="dot" cx="160" cy="110" r="3"/><circle class="dot" cx="168" cy="155" r="3"/><circle class="dot" cx="168" cy="200" r="3"/><circle class="dot" cx="160" cy="245" r="3"/><circle class="dot" cx="160" cy="290" r="3"/><circle class="dot" cx="154" cy="335" r="3"/><circle class="dot" cx="154" cy="380" r="3"/><text class="lbl" x="40" y="445">척추는 한 막대가 아니라 마디들의 곡선 — 굽고 펴고 비튼다.</text><text class="cap" x="20" y="462">척추는 마디들의 S곡선. 굴곡·신전·측굴로 몸 전체 동세를 만든다.</text>
</svg>
