<svg viewBox="0 0 480 480" xmlns="http://www.w3.org/2000/svg" role="img" aria-label="thumb_opposition">
  <style>
    .guide{fill:none;stroke:#c7ccd4;stroke-width:2.5}
    .gthin{fill:none;stroke:#c7ccd4;stroke-width:1.4}
    .gfill{fill:#c7ccd4;opacity:.18;stroke:none}
    .cons{fill:none;stroke:#e0533d;stroke-width:2.5;stroke-linecap:round;stroke-linejoin:round}
    .consf{fill:#e0533d;opacity:.14;stroke:none}
    .consd{fill:none;stroke:#e0533d;stroke-width:2;stroke-dasharray:6 5}
    .acc{fill:none;stroke:#2f6df0;stroke-width:2.5;stroke-linecap:round;stroke-linejoin:round}
    .accf{fill:#2f6df0;opacity:.14;stroke:none}
    .accd{fill:none;stroke:#2f6df0;stroke-width:2;stroke-dasharray:6 5}
    .ink{fill:none;stroke:#3a3f47;stroke-width:1.5;stroke-linejoin:round}
    .dot{fill:#e0533d;stroke:none}
    .adot{fill:#2f6df0;stroke:none}
    .lbl{fill:#3a3f47;font-family:'Pretendard','Apple SD Gothic Neo',sans-serif;font-size:14px}
    .cap{fill:#3a3f47;font-family:'Pretendard','Apple SD Gothic Neo',sans-serif;font-size:13px;opacity:.85}
    .tag{fill:#e0533d;font-family:sans-serif;font-size:12px;font-weight:600}
    .atag{fill:#2f6df0;font-family:sans-serif;font-size:12px;font-weight:600}
  </style><defs>
    <marker id="ar" markerWidth="10" markerHeight="10" refX="7.5" refY="4" orient="auto"><path d="M0 0 L8 4 L0 8 z" fill="#e0533d"/></marker>
    <marker id="ab" markerWidth="10" markerHeight="10" refX="7.5" refY="4" orient="auto"><path d="M0 0 L8 4 L0 8 z" fill="#2f6df0"/></marker>
    <marker id="ag" markerWidth="10" markerHeight="10" refX="7.5" refY="4" orient="auto"><path d="M0 0 L8 4 L0 8 z" fill="#9aa1ab"/></marker>
  </defs><rect x="190" y="150" width="100" height="110" fill="none" stroke="#c7ccd4" stroke-width="2"/><path class="cons" d="M190 235 C150 240 145 195 175 175 C190 165 200 175 205 190"/><circle class="guide" cx="180" cy="200" r="6"/><circle class="dot" cx="190" cy="235" r="4"/><path class="acc" d="M190 235 A 55 55 0 0 1 250 250"/><line class="acc" x1="232" y1="200" x2="250" y2="250" marker-end="url(#ab)"/><text class="tag" x="120" y="160">엄지는 손목쪽</text><text class="atag" x="300" y="180">손바닥을 가로질러</text><text class="lbl" x="300" y="210">다른 손가락과 마주본다</text><text class="lbl" x="40" y="320">엄지는 다른 손가락과 '평면이 다르게' 붙어 마주볼 수 있다(대립).</text><text class="lbl" x="40" y="350">초보가 가장 자주 틀리는 부분 — 엄지를 손가락과 같은 평면에 그리면 안 된다.</text><text class="cap" x="20" y="462">엄지는 다른 손가락과 다른 평면에서 마주본다(대립). 같은 평면에 그리면 어색하다.</text>
</svg>
