<svg viewBox="0 0 480 480" xmlns="http://www.w3.org/2000/svg" role="img" aria-label="value_scale">
  <style>
    .guide { fill:none; stroke:#c7ccd4; stroke-width:2.5; }
    .gfill { fill:#c7ccd4; opacity:.18; stroke:none; }
    .cons  { fill:none; stroke:#e0533d; stroke-width:2.5; stroke-linecap:round; stroke-linejoin:round; }
    .consd { fill:none; stroke:#e0533d; stroke-width:2; stroke-dasharray:6 5; }
    .acc   { fill:none; stroke:#2f6df0;  stroke-width:2.5; stroke-linecap:round; }
    .accd  { fill:none; stroke:#2f6df0;  stroke-width:2; stroke-dasharray:6 5; }
    .dot   { fill:#e0533d; stroke:none; }
    .adot  { fill:#2f6df0; stroke:none; }
    .lbl   { fill:#3a3f47; font-family:'Pretendard','Apple SD Gothic Neo',sans-serif; font-size:14px; }
    .cap   { fill:#3a3f47; font-family:'Pretendard','Apple SD Gothic Neo',sans-serif; font-size:13px; opacity:.8; }
    .tag   { fill:#e0533d; font-family:sans-serif; font-size:12px; font-weight:600; }
  </style>
  <g id="guide"></g>
  <g id="construction"><rect x="46" y="110" width="40" height="110" fill="#ffffff" stroke="#3a3f47" stroke-width="1.2"/><text class="tag" x="66" y="238" text-anchor="middle">1</text><rect x="90" y="110" width="40" height="110" fill="#dfdfdf" stroke="#3a3f47" stroke-width="1.2"/><text class="tag" x="110" y="238" text-anchor="middle">2</text><rect x="134" y="110" width="40" height="110" fill="#bfbfbf" stroke="#3a3f47" stroke-width="1.2"/><text class="tag" x="154" y="238" text-anchor="middle">3</text><rect x="178" y="110" width="40" height="110" fill="#9f9f9f" stroke="#3a3f47" stroke-width="1.2"/><text class="tag" x="198" y="238" text-anchor="middle">4</text><rect x="222" y="110" width="40" height="110" fill="#808080" stroke="#3a3f47" stroke-width="1.2"/><text class="tag" x="242" y="238" text-anchor="middle">5</text><rect x="266" y="110" width="40" height="110" fill="#606060" stroke="#3a3f47" stroke-width="1.2"/><text class="tag" x="286" y="238" text-anchor="middle">6</text><rect x="310" y="110" width="40" height="110" fill="#404040" stroke="#3a3f47" stroke-width="1.2"/><text class="tag" x="330" y="238" text-anchor="middle">7</text><rect x="354" y="110" width="40" height="110" fill="#202020" stroke="#3a3f47" stroke-width="1.2"/><text class="tag" x="374" y="238" text-anchor="middle">8</text><rect x="398" y="110" width="40" height="110" fill="#000000" stroke="#3a3f47" stroke-width="1.2"/><text class="tag" x="418" y="238" text-anchor="middle">9</text><path class="acc" d="M110 80 L110 104"/><path class="acc" d="M110 104 L103 92 M110 104 L117 92"/><text class="lbl" x="110" y="74" text-anchor="middle" fill="#2f6df0">하이라이트</text><path class="acc" d="M198 80 L198 104"/><path class="acc" d="M198 104 L191 92 M198 104 L205 92"/><text class="lbl" x="198" y="74" text-anchor="middle" fill="#2f6df0">중간톤</text><path class="acc" d="M330 80 L330 104"/><path class="acc" d="M330 104 L323 92 M330 104 L337 92"/><text class="lbl" x="330" y="74" text-anchor="middle" fill="#2f6df0">코어</text></g>
  <g id="label"><text class="lbl" x="46" y="268">밝음</text><text class="lbl" x="406" y="268">어둠</text>
    <text class="cap" x="20" y="462">9단 명도 자: 양 끝(흰·검)은 아끼고 큰 형태는 3~4단으로.</text>
  </g>
</svg>
